Coordinates
version=1
nRows=24
nColumns=22
inDegrees=yes

Units are S.I. units (second, meters, Newtons, ...)
If the header above contains a line with 'inDegrees', this indicates whether rotational values are in degrees (yes) or radians (no).

endheader
time	pelvis_tilt	pelvis_list	pelvis_rotation	pelvis_tx	pelvis_ty	pelvis_tz	hip_flexion_r	hip_adduction_r	hip_rotation_r	knee_angle_r	ankle_angle_r	subtalar_angle_r	hip_flexion_l	hip_adduction_l	hip_rotation_l	knee_angle_l	ankle_angle_l	subtalar_angle_l	lumbar_extension	lumbar_bending	lumbar_rotation
      4.13000000	     -3.19565968	      2.58042259	     23.30106907	      0.00885205	      0.97720618	     -0.73879346	    -10.89814123	      4.16024035	      7.25425631	    -25.21595363	     11.61752797	      1.32998267	     23.58202157	      0.50952952	      9.31114639	    -15.96622835	      3.91564007	     15.42131802	     -3.15778526	     -6.13208130	      6.61669186
      4.14000000	     -3.25402329	      3.06962861	     22.56192213	      0.01908447	      0.97841093	     -0.74329717	    -10.51375008	      3.35415659	      6.40032980	    -27.02876201	     10.60162935	      3.17594916	     23.22424369	      0.74506880	      8.47935615	    -16.89040418	      3.91636828	     16.19595211	     -3.12504408	     -6.81763359	      6.63304620
      4.15000000	     -3.24368289	      3.59264296	     21.79063227	      0.02930162	      0.97987190	     -0.74787386	    -10.03313402	      2.44696779	      5.34329553	    -29.05802515	      9.41701295	      5.19916035	     22.64378463	      0.96670831	      7.56439556	    -17.54997858	      4.17400222	     16.78238532	     -3.13988419	     -7.46707760	      6.66202783
      4.16000000	     -3.19435104	      4.12145346	     21.06916674	      0.03925164	      0.98152883	     -0.75268123	     -9.44992140	      1.47267144	      4.10375486	    -31.22814431	      7.96040123	      7.25262645	     21.88531951	      1.26313444	      6.75882674	    -17.98122093	      4.64600051	     16.90308404	     -3.19557165	     -8.04806854	      6.60095976
      4.17000000	     -3.28221152	      4.50577632	     20.36656617	      0.04857449	      0.98291458	     -0.75730321	     -8.51145462	      0.53717626	      2.76326124	    -33.52988058	      5.85951142	      8.57441145	     21.26033855	      1.54600238	      6.09541822	    -18.25865887	      5.21151318	     16.48663474	     -3.09944928	     -8.50120710	      6.49370298
      4.18000000	     -3.42786034	      4.81405734	     19.66629778	      0.05751952	      0.98418102	     -0.76168971	     -7.32749074	     -0.38954252	      1.35905188	    -35.96874862	      3.10975314	      8.97877388	     20.66814731	      1.80875807	      5.45634550	    -18.37214446	      5.67172855	     15.77955746	     -2.95217316	     -8.88170197	      6.35483590
      4.19000000	     -3.55304172	      5.19084757	     18.89318986	      0.06637672	      0.98552425	     -0.76592833	     -6.03580087	     -1.48929818	     -0.05476764	    -38.53221709	      0.32103775	      9.11196349	     19.91924744	      2.12171529	      4.71346856	    -18.23228943	      5.98176750	     14.92722930	     -2.85381139	     -9.29923962	      6.23036117
      4.20000000	     -3.66305670	      5.61535399	     17.99407542	      0.07518360	      0.98690528	     -0.76989423	     -4.63686289	     -2.71345230	     -1.27857770	    -41.15353192	     -1.96320466	      9.08430667	     19.04559228	      2.45021935	      3.87426836	    -17.88048134	      6.14836255	     14.04732713	     -2.77448642	     -9.74095955	      6.19481556
      4.21000000	     -3.77835504	      6.05982713	     17.04405070	      0.08379814	      0.98818478	     -0.77370763	     -3.11934549	     -3.97648411	     -2.26257741	    -43.78836975	     -3.10434818	      8.49139290	     18.18947622	      2.81442257	      2.99818250	    -17.52050887	      6.31190427	     13.24637996	     -2.70048815	    -10.17688451	      6.15867358
      4.22000000	     -3.88717026	      6.45087728	     16.16083030	      0.09206686	      0.98931972	     -0.77750693	     -1.52003299	     -5.16700478	     -3.10903576	    -46.34166241	     -3.10082169	      7.53647429	     17.41824410	      3.17742291	      2.21758047	    -17.22373210	      6.43384530	     12.44077757	     -2.65588046	    -10.51973386	      5.99350565
      4.23000000	     -4.05629708	      6.79092023	     15.33254057	      0.09993041	      0.99006579	     -0.78103583	      0.23780930	     -6.29316277	     -3.89768666	    -48.82825352	     -2.24163579	      6.44841787	     16.83853910	      3.52155202	      1.45193348	    -17.04469186	      6.60926976	     11.67547426	     -2.58500530	    -10.82659755	      5.73039891
      4.24000000	     -4.23767679	      7.06897846	     14.51216193	      0.10761657	      0.99056462	     -0.78411650	      2.09725236	     -7.25760848	     -4.52016535	    -51.19473132	     -1.18242195	      5.16023390	     16.36426737	      3.79259750	      0.69205078	    -16.94418253	      6.82884645	     10.98461634	     -2.51507799	    -11.09421056	      5.44554545
      4.25000000	     -4.28449104	      7.24079646	     13.69154019	      0.11542351	      0.99126423	     -0.78683324	      3.84529057	     -7.91853841	     -4.89026039	    -53.31076626	     -0.20412317	      3.71860621	     15.80517327	      3.91487186	      0.01853129	    -16.88401173	      7.13617107	     10.44618751	     -2.56008586	    -11.22834072	      5.14383805
      4.26000000	     -4.16737877	      7.27036401	     12.86030235	      0.12343356	      0.99237364	     -0.78927622	      5.41548158	     -8.24301439	     -5.05708513	    -55.13080093	      0.59503162	      2.56856280	     15.12240317	      3.84746511	     -0.58625420	    -16.86031849	      7.50055827	     10.07549960	     -2.73155622	    -11.16981409	      4.81692990
      4.27000000	     -3.94222723	      7.17340020	     11.97296870	      0.13142316	      0.99371214	     -0.79133247	      6.85901485	     -8.29005643	     -5.09253965	    -56.67629850	      1.30764778	      2.26043702	     14.37107616	      3.60851714	     -1.20263231	    -16.85626326	      7.89088300	      9.86229699	     -2.99035166	    -10.95307069	      4.50424922
      4.28000000	     -3.72549331	      6.99199569	     11.05607569	      0.13904661	      0.99494095	     -0.79301051	      8.33845108	     -8.13663302	     -5.02357792	    -58.01791066	      2.04978714	      2.06125188	     13.68508911	      3.27869298	     -1.82088595	    -16.88941675	      8.30381695	      9.68431018	     -3.24934614	    -10.66102333	      4.20820455
      4.29000000	     -3.57459501	      6.76696617	     10.10247345	      0.14615601	      0.99591670	     -0.79422750	      9.94780995	     -7.82954701	     -4.84380741	    -59.19534486	      2.72784313	      1.86814095	     13.11042260	      2.90064185	     -2.50313630	    -16.93207202	      8.69070062	      9.54343662	     -3.46604897	    -10.36128716	      3.94492623
      4.30000000	     -3.49644900	      6.50931574	      9.17126831	      0.15310332	      0.99673596	     -0.79519757	     11.64192236	     -7.42199364	     -4.69326050	    -60.20403029	      3.20956514	      1.91597810	     12.59931136	      2.50775028	     -3.20875413	    -16.92809596	      9.01528262	      9.34336367	     -3.60157595	    -10.05156032	      3.65739377
      4.31000000	     -3.32250214	      6.24483727	      8.30919889	      0.16038477	      0.99780201	     -0.79620151	     13.13310525	     -6.94149187	     -4.63114293	    -60.95847607	      3.68922317	      2.19002476	     11.89600062	      2.12615950	     -3.91489399	    -16.79303654	      9.26399603	      9.06554254	     -3.80896190	     -9.71420810	      3.31542068
      4.32000000	     -3.10222421	      6.00973935	      7.54434415	      0.16797745	      0.99897771	     -0.79740953	     14.43829692	     -6.46265371	     -4.65426935	    -61.44519370	      4.42235373	      2.67356227	     11.04824922	      1.82285197	     -4.53838316	    -16.53527420	      9.46915885	      8.67879002	     -4.03930042	     -9.38910816	      2.93253809
      4.33000000	     -2.88376854	      5.82740011	      6.75951451	      0.17561082	      1.00005012	     -0.79851764	     15.66251783	     -6.05323931	     -4.81782058	    -61.74800145	      4.99375406	      2.90555363	     10.12622092	      1.58500904	     -5.25029724	    -16.17421910	      9.73180120	      8.42203851	     -4.25623841	     -9.12646888	      2.63713684
      4.34000000	     -2.67473929	      5.67479150	      5.96406499	      0.18314315	      1.00100731	     -0.79949346	     16.85543293	     -5.69162816	     -5.08180952	    -61.88297409	      5.46334036	      3.00829010	      9.16784769	      1.39437353	     -5.99522832	    -15.72469467	      9.95962375	      8.17522172	     -4.46105167	     -8.89838050	      2.37875256
      4.35000000	     -2.48923779	      5.52058460	      5.20505798	      0.19054872	      1.00183530	     -0.80044527	     18.04209719	     -5.35231367	     -5.41003077	    -61.82698820	      5.97511062	      3.29371807	      8.23442961	      1.22787757	     -6.75576758	    -15.23424015	     10.11440016	      7.86149829	     -4.64064246	     -8.66157029	      2.06068754
      4.36000000	     -2.36806316	      5.33710047	      4.53923347	      0.19781747	      1.00248473	     -0.80145177	     19.25364248	     -5.05384924	     -5.87995303	    -61.61469966	      6.56572006	      3.76605703	      7.40881652	      1.06173555	     -7.39571871	    -14.79678771	     10.29135414	      7.58853611	     -4.76984435	     -8.38733008	      1.58616858
